# xmcd CD database file
#
# Track frame offsets:
#	150
#	21181
#	39906
#	58897
#	74160
#	96692
#	112985
#	132911
#	147448
#	163783
#	181583
#	197257
#
# Disc length: 3106 seconds
#
# Revision: 2
# Processed by: cddbd v1.5.2PL0 Copyright (c) Steve Scherf et al.
# Submitted via: CDex 2.11
#
DISCID=ad0c200c
DTITLE=Megan Munroe - One More Broken String
DYEAR=2008
DGENRE=Country
TTITLE0=Angel On My Shoulder (Devil On My Back)
TTITLE1=Nothing Is Easy Anymore
TTITLE2=Moonshine
TTITLE3=Pennies In The Ocean
TTITLE4=Leavin' Memphis
TTITLE5=Angel On Fire
TTITLE6=Good Fight
TTITLE7=Shameless Fool
TTITLE8=Perfect Storm
TTITLE9=Belle Meade
TTITLE10=Speechless
TTITLE11=Lonely Tonight
EXTD=2008 YEAR: 2008
EXTT0=
EXTT1=
EXTT2=
EXTT3=
EXTT4=
EXTT5=
EXTT6=
EXTT7=
EXTT8=
EXTT9=
EXTT10=
EXTT11=
PLAYORDER=
